<svg id="marshmallow" xmlns="http://www.w3.org/2000/svg" xmlns:xlink="http://www.w3.org/1999/xlink" viewBox="0 0 1404.63666 733.43061"><defs><style>.cls-1,.cls-3{fill:#94a3b8;}.cls-1,.cls-6{stroke:#fff;stroke-width:3px;}.cls-1,.cls-2,.cls-6{stroke-miterlimit:10;}.cls-2,.cls-6{fill:none;}.cls-2{stroke:#94a3b8;stroke-linecap:round;stroke-width:16px;}.cls-4{clip-path:url(#clip-path);}.cls-5{fill:#fff;}</style><clipPath id="clip-path" transform="translate(-304.85598 -633.28469)"><rect class="cls-1" x="313.69888" y="836.78454" width="1372.60225" height="326.43093" rx="53.27381"/></clipPath></defs><g id="marshmallow-slate"><g id="code_face" data-name="code face"><g id="demo_codes" data-name="demo codes"><line class="cls-2" x1="145.51207" y1="8" x2="1175.03794" y2="8"/><line class="cls-2" x1="369.60018" y1="510.20143" x2="766.04478" y2="510.20143"/><line class="cls-2" x1="297.85712" y1="438.45837" x2="625.10913" y2="438.45837"/><line class="cls-2" x1="212.68785" y1="366.71531" x2="475.48538" y2="366.71531"/><line class="cls-2" x1="297.85712" y1="294.97225" x2="731.01555" y2="294.97225"/><line class="cls-2" x1="369.60018" y1="223.22918" x2="908.66504" y2="223.22918"/><line class="cls-2" x1="226.11405" y1="79.74306" x2="655.85616" y2="79.74306"/><line class="cls-2" x1="297.85712" y1="151.48612" x2="799.34228" y2="151.48612"/><line class="cls-2" x1="441.34324" y1="581.94449" x2="959.91008" y2="581.94449"/><line class="cls-2" x1="369.60018" y1="653.68755" x2="666.42441" y2="653.68755"/><line class="cls-2" x1="297.85712" y1="725.43061" x2="1022.6929" y2="725.43061"/></g></g><g id="name"><rect class="cls-3" x="8.8429" y="203.49984" width="1372.60225" height="326.43093" rx="53.27381"/><g class="cls-4"><g id="tishrabon"><path class="cls-5" d="M718.18078,1051.74749a138.94741,138.94741,0,0,1-24.04513,2.18592q-20.26287,0-27.57624-7.2724-7.31443-7.27029-7.31443-27.5342V975.07209H636.461V962.62915h22.784V942.95586h16.56256v19.67329h40.52362v12.44294H675.80754v46.74509q0,7.81887.96825,10.76146a10.12068,10.12068,0,0,0,4.17077,5.1285q5.72648,3.78333,16.67956,3.78333a91.06,91.06,0,0,0,20.55466-2.35407Z" transform="translate(-304.85598 -633.28469)"/><path class="cls-5" d="M782.19815,1051.83156V972.97024H748.98894V960.5273h49.77177v91.30426Zm-2.10184-111.98644V919.07887h20.76625v20.76625Z" transform="translate(-304.85598 -633.28469)"/><path class="cls-5" d="M859.07883,1048.13231v-14.96516q19.25187,8.32332,33.29327,8.32332,10.08886,0,16.68867-4.07758,6.59871-4.07758,6.5998-10.29906,0-7.987-15.72182-13.03145l-17.7396-5.8011q-20.7673-6.72591-20.76625-23.70884,0-12.44189,9.37424-19.25292,9.37319-6.81,26.52532-6.81,12.8633,0,29.84623,3.95147v13.45183q-16.39441-4.95931-29.93031-4.96036-9.08,0-14.50275,3.27888t-5.42276,8.82776q0,6.81,12.35886,11.09775l20.9344,7.31443q11.433,4.03556,16.43645,9.62646,5.00134,5.593,5.0024,14.50275,0,12.94738-10.67739,20.64015-10.67844,7.69275-28.6692,7.69276A109.37811,109.37811,0,0,1,859.07883,1048.13231Z" transform="translate(-304.85598 -633.28469)"/><path class="cls-5" d="M967.57059,1051.83156V919.07887h16.56256v58.59951q11.433-19.16885,31.10805-19.16885,25.97883,0,25.97883,30.85512v62.46691h-16.56256V993.90464q0-10.67632-3.32092-15.17534-3.323-4.49689-11.13979-4.49795-12.445,0-26.06361,17.90774v59.69247Z" transform="translate(-304.85598 -633.28469)"/><path class="cls-5" d="M1087.07674,1051.83156V960.5273h16.56256v17.15108q12.61108-19.16885,33.88178-19.16885a79.587,79.587,0,0,1,16.98293,2.10185v25.89476h-12.44294V973.811a30.63408,30.63408,0,0,0-6.72591-.84074,31.24537,31.24537,0,0,0-16.68867,4.41388q-7.18832,4.41389-15.00719,15.00719v59.44025Z" transform="translate(-304.85598 -633.28469)"/><path class="cls-5" d="M1240.29722,1040.81788q-15.05133,12.61108-30.01438,12.61108-12.52913,0-20.64015-7.14628a23.04061,23.04061,0,0,1-8.11313-18.07589q0-14.20638,12.61109-22.8681,12.61108-8.65751,33.29326-8.65961h10.257v-7.81887q0-9.66746-4.28777-13.78812-4.28777-4.11857-14.20849-4.11962-14.37663,0-29.76216,8.07109V964.81507q17.63239-6.30553,33.08168-6.30554,17.38017,0,24.55939,6.89406,7.1799,6.89511,7.17991,23.79291v38.25363q0,8.24135,1.76555,11.22386,1.76554,2.98462,6.64184,2.98463a26.38909,26.38909,0,0,0,5.21258-.84074l1.51333,9.92072q-8.30021,2.69037-12.57465,2.69036Q1244.571,1053.429,1240.29722,1040.81788Zm-2.60629-10.76146v-23.03625h-4.96036q-34.04994,0-34.04993,18.41218a13.83507,13.83507,0,0,0,4.37184,10.67739q4.36974,4.03554,11.6022,4.03555Q1225.5002,1040.14529,1237.69093,1030.05642Z" transform="translate(-304.85598 -633.28469)"/><path class="cls-5" d="M1293.55243,1052.84045V919.07887H1310.115v58.59951q12.02256-19.16885,29.84623-19.16885,15.55368,0,24.50754,11.98053t8.95387,32.66271q0,22.69995-10.59331,36.7403-10.5933,14.04243-27.74438,14.04034-14.71294,0-24.96995-12.44294l-4.11962,11.35Zm16.56256-23.79292q11.51813,12.44294,22.69995,12.44294,10.9275,0,16.94089-9.62646,6.00918-9.62646,6.01129-26.94569,0-32.28438-19.25293-32.28437-14.04245,0-26.3992,17.48737Z" transform="translate(-304.85598 -633.28469)"/><path class="cls-5" d="M1439.79337,1053.93341q-20.09576,0-31.56975-12.7372-11.47608-12.73719-11.47608-35.01678,0-22.1955,11.51812-34.9327t31.52771-12.7372q20.09367,0,31.56975,12.7372t11.47609,34.9327q0,22.27959-11.47609,35.01678T1439.79337,1053.93341Zm0-12.44294q11.9364,0,18.66441-9.3322,6.72591-9.3322,6.72591-25.97884,0-16.56255-6.72591-25.89476-6.728-9.3322-18.66441-9.3322-11.93849,0-18.6644,9.3322-6.728,9.3322-6.72591,25.89476,0,16.64664,6.72591,25.97884T1439.79337,1041.49047Z" transform="translate(-304.85598 -633.28469)"/><path class="cls-5" d="M1512.13476,1051.83156V960.5273h16.56256v17.15108q11.43195-19.16885,31.10734-19.16885,25.97885,0,25.97884,30.85512v62.46691h-16.56256V993.90464q0-10.67632-3.32092-15.17534-3.323-4.49689-11.13979-4.49795-12.44294,0-26.06291,17.90774v59.69247Z" transform="translate(-304.85598 -633.28469)"/><path class="cls-5" d="M1605.74544,1064.2745v-12.44294h103.7472v12.44294Z" transform="translate(-304.85598 -633.28469)"/><path class="cls-5" d="M408.60317,962.62915l89.20241,44.64324-89.20241,44.55917v-13.95627l61.374-30.6029-61.374-30.687Z" transform="translate(-304.85598 -633.28469)"/><path class="cls-5" d="M304.856,962.62915l89.2024,44.64324-89.2024,44.55917v-13.95627l61.37394-30.6029-61.37394-30.687Z" transform="translate(-304.85598 -633.28469)"/><path class="cls-5" d="M718.18078,1051.74749a138.94741,138.94741,0,0,1-24.04513,2.18592q-20.26287,0-27.57624-7.2724-7.31443-7.27029-7.31443-27.5342V975.07209H636.461V962.62915h22.784V942.95586h16.56256v19.67329h40.52362v12.44294H675.80754v46.74509q0,7.81887.96825,10.76146a10.12068,10.12068,0,0,0,4.17077,5.1285q5.72648,3.78333,16.67956,3.78333a91.06,91.06,0,0,0,20.55466-2.35407Z" transform="translate(-304.85598 -633.28469)"/><path class="cls-5" d="M782.19815,1051.83156V972.97024H748.98894V960.5273h49.77177v91.30426Zm-2.10184-111.98644V919.07887h20.76625v20.76625Z" transform="translate(-304.85598 -633.28469)"/><path class="cls-5" d="M859.07883,1048.13231v-14.96516q19.25187,8.32332,33.29327,8.32332,10.08886,0,16.68867-4.07758,6.59871-4.07758,6.5998-10.29906,0-7.987-15.72182-13.03145l-17.7396-5.8011q-20.7673-6.72591-20.76625-23.70884,0-12.44189,9.37424-19.25292,9.37319-6.81,26.52532-6.81,12.8633,0,29.84623,3.95147v13.45183q-16.39441-4.95931-29.93031-4.96036-9.08,0-14.50275,3.27888t-5.42276,8.82776q0,6.81,12.35886,11.09775l20.9344,7.31443q11.433,4.03556,16.43645,9.62646,5.00134,5.593,5.0024,14.50275,0,12.94738-10.67739,20.64015-10.67844,7.69275-28.6692,7.69276A109.37811,109.37811,0,0,1,859.07883,1048.13231Z" transform="translate(-304.85598 -633.28469)"/><path class="cls-5" d="M967.57059,1051.83156V919.07887h16.56256v58.59951q11.433-19.16885,31.10805-19.16885,25.97883,0,25.97883,30.85512v62.46691h-16.56256V993.90464q0-10.67632-3.32092-15.17534-3.323-4.49689-11.13979-4.49795-12.445,0-26.06361,17.90774v59.69247Z" transform="translate(-304.85598 -633.28469)"/><path class="cls-5" d="M1087.07674,1051.83156V960.5273h16.56256v17.15108q12.61108-19.16885,33.88178-19.16885a79.587,79.587,0,0,1,16.98293,2.10185v25.89476h-12.44294V973.811a30.63408,30.63408,0,0,0-6.72591-.84074,31.24537,31.24537,0,0,0-16.68867,4.41388q-7.18832,4.41389-15.00719,15.00719v59.44025Z" transform="translate(-304.85598 -633.28469)"/><path class="cls-5" d="M1240.29722,1040.81788q-15.05133,12.61108-30.01438,12.61108-12.52913,0-20.64015-7.14628a23.04061,23.04061,0,0,1-8.11313-18.07589q0-14.20638,12.61109-22.8681,12.61108-8.65751,33.29326-8.65961h10.257v-7.81887q0-9.66746-4.28777-13.78812-4.28777-4.11857-14.20849-4.11962-14.37663,0-29.76216,8.07109V964.81507q17.63239-6.30553,33.08168-6.30554,17.38017,0,24.55939,6.89406,7.1799,6.89511,7.17991,23.79291v38.25363q0,8.24135,1.76555,11.22386,1.76554,2.98462,6.64184,2.98463a26.38909,26.38909,0,0,0,5.21258-.84074l1.51333,9.92072q-8.30021,2.69037-12.57465,2.69036Q1244.571,1053.429,1240.29722,1040.81788Zm-2.60629-10.76146v-23.03625h-4.96036q-34.04994,0-34.04993,18.41218a13.83507,13.83507,0,0,0,4.37184,10.67739q4.36974,4.03554,11.6022,4.03555Q1225.5002,1040.14529,1237.69093,1030.05642Z" transform="translate(-304.85598 -633.28469)"/><path class="cls-5" d="M1293.55243,1052.84045V919.07887H1310.115v58.59951q12.02256-19.16885,29.84623-19.16885,15.55368,0,24.50754,11.98053t8.95387,32.66271q0,22.69995-10.59331,36.7403-10.5933,14.04243-27.74438,14.04034-14.71294,0-24.96995-12.44294l-4.11962,11.35Zm16.56256-23.79292q11.51813,12.44294,22.69995,12.44294,10.9275,0,16.94089-9.62646,6.00918-9.62646,6.01129-26.94569,0-32.28438-19.25293-32.28437-14.04245,0-26.3992,17.48737Z" transform="translate(-304.85598 -633.28469)"/><path class="cls-5" d="M1439.79337,1053.93341q-20.09576,0-31.56975-12.7372-11.47608-12.73719-11.47608-35.01678,0-22.1955,11.51812-34.9327t31.52771-12.7372q20.09367,0,31.56975,12.7372t11.47609,34.9327q0,22.27959-11.47609,35.01678T1439.79337,1053.93341Zm0-12.44294q11.9364,0,18.66441-9.3322,6.72591-9.3322,6.72591-25.97884,0-16.56255-6.72591-25.89476-6.728-9.3322-18.66441-9.3322-11.93849,0-18.6644,9.3322-6.728,9.3322-6.72591,25.89476,0,16.64664,6.72591,25.97884T1439.79337,1041.49047Z" transform="translate(-304.85598 -633.28469)"/><path class="cls-5" d="M1512.13476,1051.83156V960.5273h16.56256v17.15108q11.43195-19.16885,31.10734-19.16885,25.97885,0,25.97884,30.85512v62.46691h-16.56256V993.90464q0-10.67632-3.32092-15.17534-3.323-4.49689-11.13979-4.49795-12.44294,0-26.06291,17.90774v59.69247Z" transform="translate(-304.85598 -633.28469)"/><path class="cls-5" d="M1605.74544,1064.2745v-12.44294h103.7472v12.44294Z" transform="translate(-304.85598 -633.28469)"/><path class="cls-5" d="M408.60317,962.62915l89.20241,44.64324-89.20241,44.55917v-13.95627l61.374-30.6029-61.374-30.687Z" transform="translate(-304.85598 -633.28469)"/><path class="cls-5" d="M304.856,962.62915l89.2024,44.64324-89.2024,44.55917v-13.95627l61.37394-30.6029-61.37394-30.687Z" transform="translate(-304.85598 -633.28469)"/></g></g><rect class="cls-6" x="8.8429" y="203.49984" width="1372.60225" height="326.43093" rx="53.27381"/></g></g></svg>